<?xml version="1.0" standalone="no"?>
<!DOCTYPE svg PUBLIC "-//W3C//DTD SVG 20010904//EN"
 "http://www.w3.org/TR/2001/REC-SVG-20010904/DTD/svg10.dtd">
<svg version="1.0" xmlns="http://www.w3.org/2000/svg"
 width="150.000000pt" height="150.000000pt" viewBox="0 0 150.000000 150.000000"
 preserveAspectRatio="xMidYMid meet">
<metadata>
Created by potrace 1.11, written by Peter Selinger 2001-2013
</metadata>
<g transform="translate(0.000000,150.000000) scale(0.100000,-0.100000)"
fill="#000000" stroke="none">
<path d="M0 750 l0 -750 750 0 750 0 0 750 0 750 -750 0 -750 0 0 -750z m545
530 c3 -5 21 -10 38 -10 46 0 115 -38 151 -83 23 -29 30 -48 30 -85 l1 -47
-40 -2 c-45 -3 -56 3 -107 67 -34 43 -98 149 -98 163 0 11 18 8 25 -3z m551
-326 c19 -9 34 -23 34 -30 0 -12 -21 -13 -122 -8 -109 5 -137 3 -246 -21 -148
-31 -271 -66 -355 -100 -88 -36 -236 -135 -243 -162 -4 -13 -10 -23 -14 -23
-12 0 -50 50 -50 65 0 12 339 168 446 206 50 17 265 68 344 82 65 11 173 6
206 -9z m-331 -135 c22 -42 18 -90 -15 -174 -16 -42 -30 -84 -30 -95 0 -57
196 -162 425 -225 33 -9 104 -30 159 -47 l98 -31 -45 -23 c-25 -12 -67 -26
-94 -29 -26 -4 -86 -16 -133 -27 -94 -22 -150 -19 -226 10 -69 27 -150 91
-210 164 l-54 67 -47 -50 c-68 -73 -205 -136 -314 -145 -95 -8 -109 0 -109 61
0 50 15 61 45 34 18 -16 27 -17 58 -8 86 24 282 160 293 204 5 21 -38 110
-115 235 -25 41 -26 50 -6 50 16 0 78 -58 147 -139 l46 -54 25 39 c33 54 61
142 58 186 -1 31 1 37 14 32 9 -4 22 -19 30 -35z"/>
</g>
</svg>
